<svg version="1.0" xmlns="http://www.w3.org/2000/svg" viewBox="0 0 340 250" color-interpolation-filters="sRGB" style="margin:auto"><rect width="100%" height="100%" class="background" fill="none"/><rect width="100%" height="100%" fill="url(#watermark)" class="watermarklayer"/><g fill="#aeaeae" class="basesvg"><path d="M135.37 120.58l.36 19.68q-1.38 1.73-3.4 3.02t-4.34 2.14q-2.31.85-4.74 1.27-2.44.43-4.63.43-4.25 0-7.83-1.52-3.57-1.53-6.16-4.21-2.6-2.68-4.06-6.31-1.47-3.63-1.47-7.82 0-3.2.74-6.26.73-3.06 2.09-5.77 1.36-2.71 3.33-4.98 1.96-2.27 4.45-3.91 2.49-1.64 5.45-2.55 2.96-.91 6.33-.91 1.26 0 2.69.1 1.44.11 2.86.35 1.42.25 2.77.69 1.35.44 2.46 1.09l-.82 11.19q-1.64-.62-3.39-.84-1.74-.22-3.41-.22-2.34 0-4.38.72-2.03.72-3.54 2.07-1.51 1.34-2.39 3.28-.88 1.93-.88 4.36 0 1.53.41 2.95.41 1.42 1.25 2.52.83 1.1 2.08 1.77 1.24.67 2.88.67 1.11 0 2.3-.29 1.19-.29 2.04-1l.11-2.28-7.03-.12.35-8.79q4.37-.14 8.73-.25 4.37-.1 8.79-.27zm2.29-14.77l15.59-.82-2.06 39.9-12.36.65-1.17-39.73zm17.05-.82l31.93-.06-.29 12.42-8.73.35-1.05 27.19-12.37.65-1.11-27.19-8.73.47.35-13.83zm33.31.82l15.59-.82-2.05 39.9-12.37.65-1.17-39.73zm52.88-.82q-1.32 10.31-2.25 20.52-.94 10.21-1.79 20.55l-12.01.88.52-4.51q-.58.68-1.36 1.17-.77.5-1.65.81-.88.31-1.82.44-.94.13-1.79.1-1.99-.03-3.75-.78-1.75-.74-3.22-1.99-1.46-1.24-2.64-2.9-1.17-1.65-1.97-3.48-.81-1.84-1.23-3.74-.43-1.9-.43-3.69 0-2.64.1-5.46.11-2.83.37-5.67.26-2.85.69-5.63.42-2.78 1.07-5.33 3.57.17 7.17.32 3.61.15 7.18.09-.67 2.55-1.33 5.11-.66 2.56-1.19 5.16-.52 2.59-.85 5.2-.32 2.61-.32 5.27 0 .62.06 1.76.06 1.14.31 2.26.25 1.11.76 1.94.51.84 1.45.84 1.11 0 1.99-.95.88-.96 1.55-2.57.68-1.61 1.16-3.72.48-2.11.82-4.41.34-2.3.54-4.64.21-2.34.31-4.41.1-2.07.15-3.71.04-1.64.04-2.54 0-.59-.03-1.15-.03-.55-.09-1.14 1.91.06 3.78.09 1.88.03 3.78.03 1.47 0 2.95-.02 1.48-.01 2.97-.1z" data-gra="path-name" opacity=".956"/></g></svg>